HIERARCHY
ROOT joint_Root
{
  OFFSET 0 0 0
  CHANNELS 6 Xposition Yposition Zposition Zrotation Xrotation Yrotation
  JOINT Hips
  {
    OFFSET 0 93.9241 -3
    CHANNELS 6 Xposition Yposition Zposition Zrotation Xrotation Yrotation
    JOINT Spine
    {
      OFFSET 15.7357 0 0
      CHANNELS 6 Xposition Yposition Zposition Zrotation Xrotation Yrotation
      JOINT Chest
      {
        OFFSET 8.98455 -0.406207 0
        CHANNELS 6 Xposition Yposition Zposition Zrotation Xrotation Yrotation
        JOINT Neck
        {
          OFFSET 16.3773 0 0
          CHANNELS 6 Xposition Yposition Zposition Zrotation Xrotation Yrotation
          JOINT Head
          {
            OFFSET 6.45672 0 0
            CHANNELS 6 Xposition Yposition Zposition Zrotation Xrotation Yrotation
            End Site
            {
              OFFSET 0 0 0
            }
          }
        }
        JOINT Shoulder_L
        {
          OFFSET 12.9942 -0.242716 4.98039
          CHANNELS 6 Xposition Yposition Zposition Zrotation Xrotation Yrotation
          JOINT UpperArm_L
          {
            OFFSET 5.34809 0 0
            CHANNELS 6 Xposition Yposition Zposition Zrotation Xrotation Yrotation
            JOINT LowerArm_L
            {
              OFFSET 24.3286 1.87007e-05 0
              CHANNELS 6 Xposition Yposition Zposition Zrotation Xrotation Yrotation
              JOINT Hand_L
              {
                OFFSET 22.2916 0 0
                CHANNELS 6 Xposition Yposition Zposition Zrotation Xrotation Yrotation
                End Site
                {
                  OFFSET 0 0 0
                }
              }
            }
          }
        }
        JOINT Shoulder_R
        {
          OFFSET 12.9945 -0.242716 -4.98039
          CHANNELS 6 Xposition Yposition Zposition Zrotation Xrotation Yrotation
          JOINT UpperArm_R
          {
            OFFSET -5.34813 0 0
            CHANNELS 6 Xposition Yposition Zposition Zrotation Xrotation Yrotation
            JOINT LowerArm_R
            {
              OFFSET -24.3289 0.000322201 0
              CHANNELS 6 Xposition Yposition Zposition Zrotation Xrotation Yrotation
              JOINT Hand_R
              {
                OFFSET -22.2915 -0.000108084 0
                CHANNELS 6 Xposition Yposition Zposition Zrotation Xrotation Yrotation
                End Site
                {
                  OFFSET 0 0 0
                }
              }
            }
          }
        }
      }
    }
    JOINT UpperLeg_L
    {
      OFFSET -2.19248 -6.46944 0
      CHANNELS 6 Xposition Yposition Zposition Zrotation Xrotation Yrotation
      JOINT LowerLeg_L
      {
        OFFSET 39.0811 0 -1.23785e-05
        CHANNELS 6 Xposition Yposition Zposition Zrotation Xrotation Yrotation
        JOINT Foot_L
        {
          OFFSET 40.9854 0 -1.26872e-05
          CHANNELS 6 Xposition Yposition Zposition Zrotation Xrotation Yrotation
          JOINT Toes_L
          {
            OFFSET 11.7543 0 0
            CHANNELS 6 Xposition Yposition Zposition Zrotation Xrotation Yrotation
            End Site
            {
              OFFSET 0 0 0
            }
          }
        }
      }
    }
    JOINT UpperLeg_R
    {
      OFFSET -2.19251 6.46944 0
      CHANNELS 6 Xposition Yposition Zposition Zrotation Xrotation Yrotation
      JOINT LowerLeg_R
      {
        OFFSET -39.0811 -0.00228153 -0.0401928
        CHANNELS 6 Xposition Yposition Zposition Zrotation Xrotation Yrotation
        JOINT Foot_R
        {
          OFFSET -40.9854 0 0
          CHANNELS 6 Xposition Yposition Zposition Zrotation Xrotation Yrotation
          JOINT Toes_R
          {
            OFFSET -11.7543 0 0
            CHANNELS 6 Xposition Yposition Zposition Zrotation Xrotation Yrotation
            End Site
            {
              OFFSET 0 0 0
            }
          }
        }
      }
    }
  }
}
MOTION
Frames:	9
Frame Time:	0.0333333
0 0 0 0 0 -0 7.09291 90.954 -401.248 92.9343 2.76072 -5.03964 15.7357 5.1072e-06 -5.51765e-07 92.5051 81.524 -92.8235 8.98455 -0.406207 -4.3199e-07 9.17262 0.733024 -0.695091 16.3773 -1.3905e-06 -6.99897e-07 -8.68961 -1.79257 -1.95988 6.45672 -1.25837e-06 -1.02172e-07 -3.45322 -6.56323 -0.913877 12.9942 -0.242716 4.98039 -90.2976 2.75206 -98.8364 5.34809 -7.22636e-06 -6.2814e-07 -71.8874 5.04822 -8.55665 24.3286 1.87007e-05 4.90208e-06 19.1404 15.5788 -52.2527 22.2916 -9.88446e-07 4.63217e-06 22.1059 5.24658 1.51896 12.9945 -0.242716 -4.98039 89.5463 5.63131 -100.381 -5.34813 -1.25947e-06 -3.79883e-06 -75.6964 -0.484541 31.234 -24.3289 0.000322201 -8.65921e-06 1.38632 3.87867 -19.7062 -22.2915 -0.000108084 -4.47941e-06 32.7213 5.67276 -17.986 -2.19248 -6.46944 -1.22534e-07 174.14 8.60717 -16.3168 39.0811 -6.73843e-06 -1.23785e-05 0.105081 -0.133793 28.5139 40.9854 -6.48686e-06 -1.26872e-05 3.26801 -4.32667 -66.9728 11.7543 -2.30145e-07 3.05095e-06 0.160338 -0.183408 -18.3528 -2.19251 6.46944 -1.45247e-06 -179.003 2.10767 147.467 -39.0811 -0.00228153 -0.0401928 -0.488285 0.149295 71.7102 -40.9854 7.72618e-06 5.99936e-06 11.948 -19.8941 -35.2994 -11.7543 -5.6619e-06 -5.58687e-06 0.536117 -0.599894 -21.0521 
0 0 0 0 0 -0 6.406 91.3312 -396.359 91.1675 4.64028 -5.7234 15.7357 5.1072e-06 -5.51765e-07 84.164 81.9047 -83.6803 8.98455 -0.406207 -4.3199e-07 8.35033 -1.63622 1.08616 16.3773 -1.3905e-06 -6.99897e-07 -8.17438 -1.78994 -2.03604 6.45672 -1.25837e-06 -1.02172e-07 -2.46673 -4.28371 0.851916 12.9942 -0.242716 4.98039 -90.0007 0.00557602 -99.7813 5.34809 -7.22636e-06 -6.2814e-07 -73.5256 3.08938 -17.8498 24.3286 1.87007e-05 4.90208e-06 23.2646 13.2239 -61.9891 22.2916 -9.88446e-07 4.63217e-06 23.301 5.0867 5.38884 12.9945 -0.242716 -4.98039 89.6495 3.11926 -98.5773 -5.34813 -1.25947e-06 -3.79883e-06 -78.2353 0.116619 41.0872 -24.3289 0.000322201 -8.65921e-06 0.691196 1.6473 -22.8363 -22.2915 -0.000108084 -4.47941e-06 31.6864 5.67577 -18.4231 -2.19248 -6.46944 -1.22533e-07 176.452 10.1147 -11.898 39.0811 -6.73843e-06 -1.23785e-05 0.071676 -0.0983577 25.2897 40.9854 -6.48686e-06 -1.26872e-05 2.955 -4.06889 -68.891 11.7543 -2.30145e-07 3.05095e-06 0.132505 -0.150738 -18.0401 -2.19251 6.46944 -1.45247e-06 -177.146 1.76957 142.13 -39.0811 -0.00228153 -0.0401928 -0.419677 0.170794 66.3162 -40.9854 7.72618e-06 5.99936e-06 11.8018 -23.4325 -38.9037 -11.7543 -5.6619e-06 -5.58687e-06 0.474876 -0.526438 -20.5201 
0 0 0 0 0 -0 5.76043 91.388 -391.455 89.7392 5.47981 -6.4592 15.7357 5.1072e-06 -5.51765e-07 76.7564 82.0252 -75.69 8.98455 -0.406207 -4.3199e-07 7.80613 -3.6386 2.37946 16.3773 -1.3905e-06 -6.99897e-07 -8.25672 -1.25679 -2.03793 6.45672 -1.25837e-06 -1.02172e-07 -1.66555 -2.05716 2.06267 12.9942 -0.242716 4.98039 -89.8325 -1.87976 -99.907 5.34809 -7.22636e-06 -6.2814e-07 -72.4742 2.01516 -26.5682 24.3286 1.87007e-05 4.90207e-06 20.2267 7.7517 -69.9121 22.2916 -9.88446e-07 4.63217e-06 25.8431 4.98621 7.60321 12.9945 -0.242716 -4.98039 89.8352 1.17806 -97.0214 -5.34813 -1.25947e-06 -3.79883e-06 -79.1845 0.674398 49.3789 -24.3289 0.000322201 -8.65921e-06 -0.075052 -0.150888 -25.9539 -22.2915 -0.000108084 -4.47941e-06 33.0567 5.6755 -18.3689 -2.19248 -6.46944 -1.22534e-07 178.352 9.88582 -7.289 39.0811 -6.73843e-06 -1.23785e-05 0.0476763 -0.0753932 21.387 40.9854 -6.48686e-06 -1.26872e-05 2.8574 -3.15494 -70.5327 11.7543 -2.30145e-07 3.05095e-06 0.103161 -0.116686 -17.7125 -2.19251 6.46944 -1.45247e-06 -176.493 0.46305 139.279 -39.0811 -0.00228153 -0.0401928 -0.281722 0.175523 55.9191 -40.9854 7.72618e-06 5.99936e-06 10.2038 -24.6174 -41.8574 -11.7543 -5.6619e-06 -5.58687e-06 0.472383 -0.523468 -20.4986 
0 0 0 0 0 -0 5.28328 91.0571 -386.375 89.0235 5.19117 -6.46595 15.7357 5.1072e-06 -5.51764e-07 72.6784 81.842 -71.511 8.98455 -0.406207 -4.3199e-07 7.8816 -4.83656 2.66673 16.3773 -1.3905e-06 -6.99897e-07 -8.21101 -0.690772 -1.63027 6.45672 -1.25837e-06 -1.02172e-07 -1.63824 -0.132071 3.14358 12.9942 -0.242716 4.98039 -89.7697 -2.6422 -100.016 5.34809 -7.22636e-06 -6.2814e-07 -69.1686 0.483859 -34.2076 24.3286 1.87007e-05 4.90207e-06 15.0252 3.41507 -77.498 22.2916 -9.88446e-07 4.63217e-06 26.6368 4.98627 7.60941 12.9945 -0.242716 -4.98039 90.0693 -0.453869 -96.3145 -5.34813 -1.25947e-06 -3.79883e-06 -79.7417 0.498389 55.658 -24.3289 0.000322201 -8.65921e-06 -0.854594 -1.63228 -27.5996 -22.2915 -0.000108084 -4.47941e-06 34.1215 5.67483 -18.2292 -2.19248 -6.46944 -1.22533e-07 179.227 8.87561 -0.856889 39.0811 -6.73843e-06 -1.23785e-05 0.0258833 -0.0464716 15.8702 40.9854 -6.48686e-06 -1.26872e-05 2.88475 -2.33576 -71.5916 11.7543 -2.30145e-07 3.05095e-06 0.105768 -0.119692 -17.7415 -2.19251 6.46944 -1.45247e-06 -177.171 -1.1384 140.524 -39.0811 -0.00228153 -0.0401928 -0.136106 0.144845 39.9735 -40.9854 7.72618e-06 5.99936e-06 8.35588 -23.919 -43.3489 -11.7543 -5.6619e-06 -5.58687e-06 0.431397 -0.475107 -20.146 
0 0 0 0 0 -0 4.96723 90.3081 -380.947 89.5229 5.59924 -6.01761 15.7357 5.1072e-06 -5.51765e-07 68.1537 81.4169 -67.3628 8.98455 -0.406207 -4.3199e-07 8.24986 -6.35589 2.04044 16.3773 -1.3905e-06 -6.99897e-07 -8.49379 -0.361029 -0.922611 6.45672 -1.25837e-06 -1.02172e-07 -1.69821 1.02048 4.14235 12.9942 -0.242716 4.98039 -89.7321 -3.39522 -100.484 5.34809 -7.22636e-06 -6.2814e-07 -66.3135 -1.61117 -39.2928 24.3286 1.87007e-05 4.90207e-06 15.6841 1.30378 -85.3568 22.2916 -9.88446e-07 4.63217e-06 24.7818 5.09208 5.27305 12.9945 -0.242716 -4.98039 90.2666 -1.78151 -96.4858 -5.34813 -1.25947e-06 -3.79883e-06 -79.2809 -1.72869 59.6602 -24.3289 0.000322201 -8.65921e-06 -1.63322 -3.10349 -27.7636 -22.2915 -0.000108084 -4.47941e-06 34.7631 5.67704 -18.7008 -2.19248 -6.46944 -1.22533e-07 178.976 7.83555 5.17521 39.0811 -6.73843e-06 -1.23785e-05 0.0609977 -0.108195 12.3674 40.9854 -6.48686e-06 -1.26872e-05 3.15577 -0.52569 -71.3165 11.7543 -2.30145e-07 3.05095e-06 0.203195 -0.245336 -19.0379 -2.19251 6.46944 -1.45247e-06 -179.347 -1.50106 146.045 -39.0811 -0.00228153 -0.0401928 -0.0323638 0.0659851 19.0197 -40.9854 7.72618e-06 5.99936e-06 5.56484 -20.3421 -43.9929 -11.7543 -5.6619e-06 -5.58687e-06 0.399167 -0.437488 -19.8705 
0 0 0 0 0 -0 4.48058 89.1623 -375.068 90.2789 7.19119 -6.43742 15.7357 5.1072e-06 -5.51765e-07 63.3039 81.1915 -62.8288 8.98455 -0.406207 -4.3199e-07 8.0633 -7.87929 1.50662 16.3773 -1.3905e-06 -6.99897e-07 -9.13865 -0.66231 -0.538744 6.45672 -1.25837e-06 -1.02172e-07 -1.9758 1.37817 5.00177 12.9942 -0.242716 4.98039 -89.7287 -4.2392 -101.333 5.34809 -7.22636e-06 -6.2814e-07 -65.2196 -2.33525 -41.6942 24.3286 1.87007e-05 4.90208e-06 18.055 -0.369536 -91.1329 22.2916 -9.88446e-07 4.63217e-06 25.2868 5.27156 0.883653 12.9945 -0.242716 -4.98039 90.4023 -2.65724 -96.3885 -5.34813 -1.25947e-06 -3.79883e-06 -79.1258 -4.23324 61.0673 -24.3289 0.000322201 -8.65921e-06 -3.18718 -6.06364 -27.7854 -22.2915 -0.000108084 -4.47941e-06 36.8845 5.67483 -18.259 -2.19248 -6.46944 -1.22534e-07 179.496 6.46328 5.74869 39.0811 -6.73843e-06 -1.23785e-05 0.0625651 -0.171697 16.9914 40.9854 -6.48686e-06 -1.26872e-05 3.68795 2.85337 -70.7563 11.7543 -2.30145e-07 3.05095e-06 0.468647 -0.707302 -26.0054 -2.19251 6.46944 -1.45247e-06 178.544 -1.22161 148.367 -39.0811 -0.00228153 -0.0401928 0.00121396 0.00853588 6.83241 -40.9854 7.72618e-06 5.99936e-06 4.03125 -16.0299 -48.0987 -11.7543 -5.6619e-06 -5.58687e-06 0.381786 -0.417356 -19.7225 
0 0 0 0 0 -0 3.53677 88.3473 -368.961 89.1211 7.7311 -8.56426 15.7357 5.1072e-06 -5.51765e-07 61.9422 82.0037 -61.0817 8.98455 -0.406207 -4.3199e-07 6.44681 -7.50996 2.14453 16.3773 -1.3905e-06 -6.99897e-07 -9.58425 -1.22815 -1.0911 6.45672 -1.25837e-06 -1.02172e-07 -2.45403 0.66451 5.92398 12.9942 -0.242716 4.98039 -89.8017 -3.81692 -102.025 5.34809 -7.22636e-06 -6.2814e-07 -65.2054 0.17179 -40.3739 24.3286 1.87007e-05 4.90208e-06 15.8116 -1.16455 -94.1074 22.2916 -9.88446e-07 4.63217e-06 28.3379 5.32092 -0.526571 12.9945 -0.242716 -4.98039 90.2992 -1.92887 -96.1803 -5.34813 -1.25947e-06 -3.79883e-06 -78.9964 -6.33506 60.6848 -24.3289 0.000322201 -8.65921e-06 -4.77121 -8.865 -28.4342 -22.2915 -0.000108084 -4.47941e-06 39.5145 5.67554 -18.3687 -2.19248 -6.46944 -1.22534e-07 -177.481 3.67729 3.43357 39.0811 -6.73843e-06 -1.23785e-05 0.0137357 0.00231926 22.3943 40.9854 -6.48686e-06 -1.26872e-05 3.22308 5.77001 -65.2418 11.7543 -2.30145e-07 3.05095e-06 1.35903 -1.45906 -39.3434 -2.19251 6.46944 -1.45247e-06 -179.806 -0.506104 145.806 -39.0811 -0.00228153 -0.0401928 0.00285054 -0.0107844 6.04294 -40.9854 7.72618e-06 5.99936e-06 1.9558 -14.9029 -47.3843 -11.7543 -5.6619e-06 -5.58687e-06 0.45169 -0.498971 -20.3203 
0 0 0 0 0 -0 2.58225 87.8332 -362.041 86.8955 6.84263 -9.41248 15.7357 5.1072e-06 -5.51764e-07 66.2822 82.7442 -64.6778 8.98455 -0.406207 -4.3199e-07 5.62707 -5.8531 3.49516 16.3773 -1.3905e-06 -6.99897e-07 -10.1956 -1.39792 -1.67263 6.45672 -1.25837e-06 -1.02172e-07 -3.22883 -0.248126 5.65323 12.9942 -0.242716 4.98039 -89.919 -2.00627 -102.69 5.34809 -7.22636e-06 -6.2814e-07 -66.397 3.49833 -34.7292 24.3286 1.87007e-05 4.90208e-06 14.2335 -1.14225 -94.4907 22.2916 -9.88446e-07 4.63217e-06 25.7821 5.30512 -0.0754554 12.9945 -0.242716 -4.98039 90.0658 -0.438241 -96.4751 -5.34813 -1.25947e-06 -3.79883e-06 -80.3523 -6.45247 56.939 -24.3289 0.000322201 -8.65921e-06 -6.10455 -11.2773 -28.6706 -22.2915 -0.000108084 -4.47941e-06 39.6615 5.67621 -18.5493 -2.19248 -6.46944 -1.22533e-07 -173.936 -0.83411 2.04768 39.0811 -6.73843e-06 -1.23785e-05 0.0102155 0.0127137 28.7779 40.9854 -6.48686e-06 -1.26872e-05 4.89388 7.26024 -57.3929 11.7543 -2.30145e-07 3.05095e-06 1.82958 -3.52032 -45.7606 -2.19251 6.46944 -1.45247e-06 -174.225 2.15276 141.877 -39.0811 -0.00228153 -0.0401928 0.0194731 -0.0740397 15.1769 -40.9854 7.72618e-06 5.99936e-06 6.08457 -12.2628 -37.0396 -11.7543 -5.6619e-06 -5.58687e-06 0.173376 -0.183834 -17.9806 
0 0 0 0 0 -0 1.80615 87.8866 -354.676 84.3096 4.87511 -7.09659 15.7357 5.1072e-06 -5.51765e-07 75.1009 82.2226 -72.8308 8.98455 -0.406207 -4.3199e-07 7.36282 -3.99263 4.79399 16.3773 -1.3905e-06 -6.99897e-07 -10.6153 -1.17133 -1.07872 6.45672 -1.25837e-06 -1.02172e-07 -4.91875 -0.507516 5.1365 12.9942 -0.242716 4.98039 -90.0151 0.404152 -102.883 5.34809 -7.22636e-06 -6.2814e-07 -68.6354 5.81333 -26.7116 24.3286 1.87007e-05 4.90208e-06 16.2294 0.149385 -89.4942 22.2916 -9.88446e-07 4.63217e-06 20.4341 5.30365 -0.0280269 12.9945 -0.242716 -4.98039 89.8098 1.47921 -97.6584 -5.34813 -1.25947e-06 -3.79883e-06 -83.1623 -2.48335 48.3443 -24.3289 0.000322201 -8.65921e-06 -6.76859 -12.9406 -27.9196 -22.2915 -0.000108084 -4.47941e-06 38.638 5.67671 -18.6205 -2.19248 -6.46944 -1.22534e-07 -171.125 -2.34682 1.74901 39.0811 -6.73843e-06 -1.23785e-05 -0.0138761 0.0353766 36.9414 40.9854 -6.48686e-06 -1.26872e-05 4.14223 6.30294 -41.7158 11.7543 -2.30145e-07 3.05095e-06 2.00363 -4.65874 -54.1491 -2.19251 6.46944 -1.45247e-06 -170.93 0.237329 142.28 -39.0811 -0.00228153 -0.0401928 0.0177743 -0.0240502 28.6997 -40.9854 7.72618e-06 5.99936e-06 4.45475 -12.1881 -48.7455 -11.7543 -5.6619e-06 -5.58687e-06 0.00724552 -0.00751156 -16.632 
